<svg xmlns="http://www.w3.org/2000/svg" xmlns:xlink="http://www.w3.org/1999/xlink" version="1.1" x="0px" y="0px" viewBox="0 0 100 100" enable-background="new 0 0 100 100" xml:space="preserve">
	<g><path fill="#000000" d="M54.369,48.378c-2.854,0-5.176,2.321-5.176,5.175c0,2.854,2.322,5.176,5.176,5.176s5.176-2.322,5.176-5.176   C59.544,50.651,57.271,48.378,54.369,48.378z M54.369,56.529c-1.641,0-2.976-1.335-2.976-2.976c0-1.64,1.335-2.975,2.976-2.975   c1.696,0,2.976,1.279,2.976,2.975C57.344,55.194,56.009,56.529,54.369,56.529z"/><path fill="#000000" d="M53.829,23.805c-12.926,0-23.442,10.553-23.442,23.525v0.624c0,0.585,0.458,1.068,1.043,1.099   c1.924,0.1,4.555,0.59,6.188,1.667c0.018,0.014,0.033,0.026,0.044,0.034c0.191,0.144,0.36,0.301,0.528,0.458   c-0.599,2.288-1.233,4.625-1.838,6.782c-4.032,0.15-9.554,0.289-13.714,0.372c-0.607,0.012-1.09,0.514-1.078,1.122   c0.012,0.6,0.502,1.078,1.099,1.078c0.007,0,0.015,0,0.022,0c0.198-0.004,0.576-0.012,1.078-0.022V71.46   c-0.505,0.207-1.011,0.413-1.51,0.613c-0.564,0.226-0.837,0.867-0.611,1.431c0.172,0.43,0.585,0.69,1.021,0.69   c0.136,0,0.275-0.025,0.409-0.079c3.285-1.318,11.038-4.511,12.09-5.702c0.58-0.655,1.722-4.231,2.884-8.287   c1.086-0.048,2.033-0.098,2.744-0.149l0.023,1.444c0,5.329,4.335,9.664,9.665,9.664l0.667,0c0.259,0.008,0.528,0.016,0.811,0.016   c2.85,0,6.469-0.895,13.626-7.421c0.86-0.86,3.926-1.416,7.813-1.416c0.541,0,0.999,0.011,1.33,0.025   c0.421,0.022,0.819-0.209,1.018-0.583c0.783-1.476,2.699-8.339,2.699-14.375C78.439,32.159,69.699,23.805,53.829,23.805z    M33.528,66.939c-0.523,0.498-3.829,2.024-7.567,3.605v-10.05c2.69-0.062,6.503-0.159,9.76-0.276   C34.697,63.769,33.841,66.465,33.528,66.939z M39.777,53.823c0.316,0.941,0.594,2.165,0.807,3.58   c0.004,0.076,0.014,0.196,0.029,0.386c-0.5,0.036-1.165,0.072-1.942,0.108C39.056,56.512,39.431,55.127,39.777,53.823z    M74.053,60.068c-0.203-0.003-0.424-0.005-0.66-0.005c-3.334,0-7.667,0.357-9.332,2.025C56.597,68.892,53.465,68.9,51.959,68.9   c-0.001,0-0.003,0-0.005,0c-0.258,0-0.503-0.008-0.776-0.016h-0.702c-4.116,0-7.464-3.348-7.464-7.464l-0.004-1.5l-0.03-0.346   c-0.075-0.851-0.188-2.115-0.198-2.213c0.004-0.076,0.001-0.152-0.01-0.228c-0.253-1.7-0.584-3.131-0.962-4.186   c-0.269-0.946-0.77-1.819-1.438-2.614c-0.043-0.077-0.109-0.137-0.17-0.201c-0.368-0.41-0.769-0.803-1.239-1.156   c-0.029-0.024-0.06-0.047-0.091-0.068c-1.97-1.316-4.675-1.795-6.279-1.968c0.208-11.58,9.655-20.936,21.239-20.936   c14.661,0,22.411,7.374,22.411,21.325C76.239,52.32,74.805,58.024,74.053,60.068z"/></g>
</svg>
