<?xml version="1.0" encoding="UTF-8"?>
<svg version="1.1" viewBox="0 0 64 64" xmlns="http://www.w3.org/2000/svg" xmlns:xlink="http://www.w3.org/1999/xlink">
  <path d="M42.9967,35.8971l4.9055,15.6137l5.6557e-09,1.66981e-08c0.334859,0.988649 -0.195143,2.06156 -1.18379,2.39642c-0.581352,0.196906 -1.22212,0.0992394 -1.71841,-0.261922l-13.0005,-9.7986l-12.9743,9.7933l-5.79648e-08,4.17508e-08c-0.846983,0.610063 -2.02815,0.418002 -2.63821,-0.42898c-0.357741,-0.496671 -0.452803,-1.13584 -0.255085,-1.71512l4.87,-15.5761l-13.1719,-9.4591l-2.11172e-07,-1.51469e-07c-0.858242,-0.615595 -1.05495,-1.81038 -0.43935,-2.66862c0.353743,-0.493177 0.920585,-0.789162 1.52745,-0.797582h16.2266l5.0633,-15.6623l-6.62493e-08,2.12935e-07c0.307815,-0.989363 1.35939,-1.54187 2.34875,-1.23405c0.589284,0.183341 1.05071,0.644767 1.23405,1.23405l5.0633,15.6623h16.28l-6.75607e-09,-9.41078e-11c1.05609,0.0147105 1.90029,0.882763 1.88558,1.93885c-0.00846113,0.607435 -0.305021,1.17472 -0.798979,1.52835Z" fill="#4ce8be" fill-rule="evenodd"></path>
</svg>
